<svg version="1.1" xmlns="http://www.w3.org/2000/svg" xmlns:xlink="http://www.w3.org/1999/xlink" width="370px" height="195.66666700000002px" viewBox="0 0 370 195.66666700000002"><style>text{font-family:Times new roman;font-size: 12px;}tspan{font-family:Times new roman;font-size: 12px;}</style><rect width="370" height="195.66666700000002" fill="#fff" x="0" y="0"></rect><g transform="translate(82.33333396911621,10)"><g><g fill="none" font-size="10" font-family="sans-serif" text-anchor="end"><path class="domain" stroke="currentColor" d="M-6,155.47998622167972H0V0H-6"></path><g class="tick" opacity="1" transform="translate(0,155.47998622167972)"><line stroke="currentColor" x2="-6"></line><text fill="currentColor" x="-9" dy="0.32em">0</text><line x1="0" x2="182.0937442779541" stroke="#000000" stroke-opacity="0.1"></line></g><g class="tick" opacity="1" transform="translate(0,118.07378240705417)"><line stroke="currentColor" x2="-6"></line><text fill="currentColor" x="-9" dy="0.32em">50,000,000</text><line x1="0" x2="182.0937442779541" stroke="#000000" stroke-opacity="0.1"></line></g><g class="tick" opacity="1" transform="translate(0,80.66757859242861)"><line stroke="currentColor" x2="-6"></line><text fill="currentColor" x="-9" dy="0.32em">100,000,000</text><line x1="0" x2="182.0937442779541" stroke="#000000" stroke-opacity="0.1"></line></g><g class="tick" opacity="1" transform="translate(0,43.261374777803084)"><line stroke="currentColor" x2="-6"></line><text fill="currentColor" x="-9" dy="0.32em">150,000,000</text><line x1="0" x2="182.0937442779541" stroke="#000000" stroke-opacity="0.1"></line></g><g class="tick" opacity="1" transform="translate(0,5.855170963177529)"><line stroke="currentColor" x2="-6"></line><text fill="currentColor" x="-9" dy="0.32em">200,000,000</text><line x1="0" x2="182.0937442779541" stroke="#000000" stroke-opacity="0.1"></line></g></g><g transform="translate(-80,77.73999311083986)"><text x="0" y="-6" transform="rotate(-90 0 0)" style="font-size: 12px; text-anchor: middle;"><tspan x="0" dy="1em">Mean Peak Intensity</tspan></text></g></g><g><g transform="translate(10,155.47998622167972)"><g fill="none" font-size="10" font-family="sans-serif" text-anchor="middle"><g class="tick" opacity="1" transform="translate(76.04687213897705,0)"><line stroke="currentColor" y2="6"></line><text fill="currentColor" y="9" dy="0.71em">LPE(38:4)</text><line y1="0" y2="-155.47998622167972" stroke="#000000" stroke-opacity="0.1"></line></g></g><line x1="-10" x2="172.0937442779541" y1="0" y2="0" stroke="black" stroke-width="1"></line></g></g><rect x="0" y="0" width="182.0937442779541" height="155.47998622167972" stroke="currentColor" stroke-width="1" fill="none"></rect><g class="mainbox"><g transform="translate(21.78190976801052,0)" class="groupBoxs"><g transform="translate(11.781909768010532,0)" stroke="black"><rect x="0" y="114.49638182637692" width="19.27948871128996" height="40.983604395302805" fill="#0072b5" fill-opacity="1"></rect><g><line x1="7.229808266733735" x2="12.049680444556225" y1="109.49250342650886" y2="109.49250342650886" stroke="#000"></line><line x1="7.229808266733735" x2="12.049680444556225" y1="119.50026022624496" y2="119.50026022624496" stroke="#000"></line><line x1="9.63974435564498" x2="9.63974435564498" y1="119.50026022624496" y2="109.49250342650886" stroke="#000"></line></g></g><g transform="translate(54.62521801532155,0)" stroke="black"><rect x="0" y="109.80680435809003" width="19.27948871128996" height="45.67318186358969" fill="#dc0000" fill-opacity="1"></rect><g><line x1="7.229808266733735" x2="12.049680444556225" y1="103.80677375507666" y2="103.80677375507666" stroke="#000"></line><line x1="7.229808266733735" x2="12.049680444556225" y1="115.80683496110336" y2="115.80683496110336" stroke="#000"></line><line x1="9.63974435564498" x2="9.63974435564498" y1="115.80683496110336" y2="103.80677375507666" stroke="#000"></line></g></g><g transform="translate(97.46852626263258,0)" stroke="black"><rect x="0" y="112.87539441291973" width="19.27948871128996" height="42.60459180875999" fill="#e18727" fill-opacity="1"></rect><g><line x1="7.229808266733735" x2="12.049680444556225" y1="97.25516205560382" y2="97.25516205560382" stroke="#000"></line><line x1="7.229808266733735" x2="12.049680444556225" y1="128.49562677023567" y2="128.49562677023567" stroke="#000"></line><line x1="9.63974435564498" x2="9.63974435564498" y1="128.49562677023567" y2="97.25516205560382" stroke="#000"></line></g></g><g transform="translate(0,-15)"><g class="plotView00pSig"><rect x="21.42165412365551" y="79.0000057220459" width="0" height="0" fill="none" stroke-width="0" stroke="currentColor" stroke-opacity="0.3" stroke-dasharray="2,3" class="plotView00pSigBackgroundRect"></rect><line x1="21.42165412365551" x2="64.26496237096653" y1="91.0000057220459" y2="91.0000057220459" stroke="black" stroke-with="1"></line><line x1="21.42165412365551" x2="64.26496237096653" y1="91.0000057220459" y2="91.0000057220459" stroke="black" stroke-with="1"></line><text x="42.84330824731102" y="89.0000057220459" text-anchor="middle">****</text><line x1="21.42165412365551" x2="21.42165412365551" y1="91.0000057220459" y2="96.0000057220459" stroke="black" stroke-with="1"></line><line x1="64.26496237096653" x2="64.26496237096653" y1="91.0000057220459" y2="96.0000057220459" stroke="black" stroke-with="1"></line></g><g class="plotView01pSig"><rect x="64.26496237096653" y="59.0000057220459" width="0" height="0" fill="none" stroke-width="0" stroke="currentColor" stroke-opacity="0.3" stroke-dasharray="2,3" class="plotView01pSigBackgroundRect"></rect><line x1="64.26496237096653" x2="107.10827061827756" y1="71.0000057220459" y2="71.0000057220459" stroke="black" stroke-with="1"></line><line x1="64.26496237096653" x2="107.10827061827756" y1="71.0000057220459" y2="71.0000057220459" stroke="black" stroke-with="1"></line><text x="85.68661649462204" y="69.0000057220459" text-anchor="middle">.</text><line x1="64.26496237096653" x2="64.26496237096653" y1="71.0000057220459" y2="76.0000057220459" stroke="black" stroke-with="1"></line><line x1="107.10827061827756" x2="107.10827061827756" y1="71.0000057220459" y2="76.0000057220459" stroke="black" stroke-with="1"></line></g><g class="plotView02pSig"><rect x="21.42165412365551" y="39.0000057220459" width="0" height="0" fill="none" stroke-width="0" stroke="currentColor" stroke-opacity="0.3" stroke-dasharray="2,3" class="plotView02pSigBackgroundRect"></rect><line x1="21.42165412365551" x2="107.10827061827756" y1="51.0000057220459" y2="51.0000057220459" stroke="black" stroke-with="1"></line><line x1="21.42165412365551" x2="107.10827061827756" y1="51.0000057220459" y2="51.0000057220459" stroke="black" stroke-with="1"></line><text x="64.26496237096653" y="49.0000057220459" text-anchor="middle">-</text><line x1="21.42165412365551" x2="21.42165412365551" y1="51.0000057220459" y2="56.0000057220459" stroke="black" stroke-with="1"></line><line x1="107.10827061827756" x2="107.10827061827756" y1="51.0000057220459" y2="56.0000057220459" stroke="black" stroke-with="1"></line></g></g><g class="plotView0pSig" transform="translate(70.04687213897705,5)"><rect x="0" y="0" width="0" height="0" fill="none" stroke-width="0" stroke="currentColor" stroke-opacity="0.3" stroke-dasharray="2,3" class="plotView0pSigBackgroundRect"></rect><text x="0" y="12" text-anchor="start">**</text></g></g></g><g class="plotViewmutiBoxLegend" transform="translate(192.0937442779541,10)"><rect x="0" y="-12" width="0" height="0" fill="none" stroke-width="0" stroke="currentColor" stroke-opacity="0.3" stroke-dasharray="2,3" class="plotViewmutiBoxLegendBackgroundRect"></rect><text x="0" y="0">Group</text><circle cx="6" cy="14" r="6" style="fill: rgb(0, 114, 181);"></circle><text x="15" y="20">WT</text><circle cx="6" cy="34" r="6" style="fill: rgb(220, 0, 0);"></circle><text x="15" y="40">5xFAD</text><circle cx="6" cy="54" r="6" style="fill: rgb(225, 135, 39);"></circle><text x="15" y="60">5xFAD+SFDF</text></g></g></svg>